<svg xmlns="http://www.w3.org/2000/svg" xmlns:xlink="http://www.w3.org/1999/xlink" xmlns:lucid="lucid" width="2025" height="3060"><g transform="translate(-240 -80)" lucid:page-tab-id="0_0"><path d="M584 120c19.88 0 36 26.86 36 60s-16.12 60-36 60H296c-19.88 0-36-26.86-36-60s16.12-60 36-60z" stroke="#5e5e5e" stroke-width="3" fill="#ffdba9"/><path d="M584 240c-19.88 0-36-26.86-36-60s16.12-60 36-60" stroke="#5e5e5e" stroke-width="3" fill="none"/><use xlink:href="#a" transform="matrix(1,0,0,1,265,125) translate(84.77160493827161 45.27777777777778)"/><use xlink:href="#b" transform="matrix(1,0,0,1,265,125) translate(158.72222222222223 45.27777777777778)"/><use xlink:href="#c" transform="matrix(1,0,0,1,265,125) translate(83.59876543209876 71.94444444444446)"/><path d="M730 242.5V354c0 3.3 2.7 6 6 6h4" stroke="#7ab648" stroke-width="2" fill="none"/><path d="M731 242.53h-2v-1.03h2" fill="#7ab648"/><path d="M755.26 360L741 364.64v-9.28z" stroke="#7ab648" stroke-width="2" fill="#7ab648"/><path d="M1030 300c16.57 0 30 26.86 30 60s-13.43 60-30 60H790c-16.57 0-30-26.86-30-60s13.43-60 30-60z" stroke="#5e5e5e" stroke-width="3" fill="#ffdba9"/><path d="M1030 420c-16.57 0-30-26.86-30-60s13.43-60 30-60" stroke="#5e5e5e" stroke-width="3" fill="none"/><use xlink:href="#d" transform="matrix(1,0,0,1,765,305) translate(63.858024691358025 45.27777777777778)"/><use xlink:href="#b" transform="matrix(1,0,0,1,765,305) translate(131.6358024691358 45.27777777777778)"/><use xlink:href="#e" transform="matrix(1,0,0,1,765,305) translate(46.66666666666666 71.94444444444446)"/><path d="M1221 440c16.57 0 30 26.86 30 60s-13.43 60-30 60H981c-16.57 0-30-26.86-30-60s13.43-60 30-60z" stroke="#5e5e5e" stroke-width="3" fill="#ffdba9"/><path d="M1221 560c-16.57 0-30-26.86-30-60s13.43-60 30-60" stroke="#5e5e5e" stroke-width="3" fill="none"/><use xlink:href="#f" transform="matrix(1,0,0,1,956,445) translate(82.34567901234568 45.27777777777778)"/><use xlink:href="#g" transform="matrix(1,0,0,1,956,445) translate(50.37037037037037 71.94444444444446)"/><path d="M1221 580c16.57 0 30 26.86 30 60s-13.43 60-30 60H981c-16.57 0-30-26.86-30-60s13.43-60 30-60z" stroke="#5e5e5e" stroke-width="3" fill="#ffdba9"/><path d="M1221 700c-16.57 0-30-26.86-30-60s13.43-60 30-60" stroke="#5e5e5e" stroke-width="3" fill="none"/><use xlink:href="#h" transform="matrix(1,0,0,1,956,585) translate(36.728395061728406 45.27777777777778)"/><use xlink:href="#i" transform="matrix(1,0,0,1,956,585) translate(132.90123456790124 45.27777777777778)"/><use xlink:href="#j" transform="matrix(1,0,0,1,956,585) translate(52.8395061728395 71.94444444444446)"/><path d="M1221 720c16.57 0 30 26.86 30 60s-13.43 60-30 60H981c-16.57 0-30-26.86-30-60s13.43-60 30-60z" stroke="#5e5e5e" stroke-width="3" fill="#ffdba9"/><path d="M1221 840c-16.57 0-30-26.86-30-60s13.43-60 30-60" stroke="#5e5e5e" stroke-width="3" fill="none"/><use xlink:href="#k" transform="matrix(1,0,0,1,956,725) translate(52.74691358024691 45.27777777777778)"/><use xlink:href="#l" transform="matrix(1,0,0,1,956,725) translate(57.12962962962962 71.94444444444446)"/><path d="M1250.45 725.8c.86-3.2 4.24-5.8 7.55-5.8h256c3.3 0 5.3 2.6 4.45 5.8l-28.9 108.4c-.86 3.2-4.24 5.8-7.55 5.8h-256c-3.3 0-5.3-2.6-4.45-5.8z" stroke="#5e5e5e" stroke-width="3" fill="#ffbbb1"/><use xlink:href="#m" transform="matrix(1,0,0,1,1225,725) translate(52.51117283950618 59.02777777777778)"/><use xlink:href="#n" transform="matrix(1,0,0,1,1225,725) translate(109.11611111111112 59.02777777777778)"/><path d="M1250.45 585.8c.86-3.2 4.24-5.8 7.55-5.8h256c3.3 0 5.3 2.6 4.45 5.8l-28.9 108.4c-.86 3.2-4.24 5.8-7.55 5.8h-256c-3.3 0-5.3-2.6-4.45-5.8z" stroke="#5e5e5e" stroke-width="3" fill="#ffbbb1"/><use xlink:href="#o" transform="matrix(1,0,0,1,1225,585) translate(36.369197530864206 59.02777777777778)"/><use xlink:href="#p" transform="matrix(1,0,0,1,1225,585) translate(80.75191358024692 59.02777777777778)"/><use xlink:href="#q" transform="matrix(1,0,0,1,1225,585) translate(147.29512345679012 59.02777777777778)"/><use xlink:href="#r" transform="matrix(1,0,0,1,1225,585) translate(195.44327160493827 59.02777777777778)"/><path d="M1250.45 445.8c.86-3.2 4.24-5.8 7.55-5.8h256c3.3 0 5.3 2.6 4.45 5.8l-28.9 108.4c-.86 3.2-4.24 5.8-7.55 5.8h-256c-3.3 0-5.3-2.6-4.45-5.8z" stroke="#5e5e5e" stroke-width="3" fill="#ffbbb1"/><use xlink:href="#s" transform="matrix(1,0,0,1,1225,445) translate(85.13462962962963 59.02777777777778)"/><use xlink:href="#t" transform="matrix(1,0,0,1,1225,445) translate(140.56672839506172 59.02777777777778)"/><path d="M910 422.5V494c0 3.3 2.7 6 6 6h15" stroke="#7ab648" stroke-width="2" fill="none"/><path d="M911 422.53h-2v-1.03h2" fill="#7ab648"/><path d="M946.26 500L932 504.64v-9.28z" stroke="#7ab648" stroke-width="2" fill="#7ab648"/><path d="M910 422.5V634c0 3.3 2.7 6 6 6h15" stroke="#7ab648" stroke-width="2" fill="none"/><path d="M911 422.53h-2v-1.03h2" fill="#7ab648"/><path d="M946.26 640L932 644.64v-9.28z" stroke="#7ab648" stroke-width="2" fill="#7ab648"/><path d="M910 422.5V774c0 3.3 2.7 6 6 6h15" stroke="#7ab648" stroke-width="2" fill="none"/><path d="M911 422.53h-2v-1.03h2" fill="#7ab648"/><path d="M946.26 780L932 784.64v-9.28z" stroke="#7ab648" stroke-width="2" fill="#7ab648"/><path d="M1030 1320c16.57 0 30 26.86 30 60s-13.43 60-30 60H790c-16.57 0-30-26.86-30-60s13.43-60 30-60z" stroke="#5e5e5e" stroke-width="3" fill="#ffdba9"/><path d="M1030 1440c-16.57 0-30-26.86-30-60s13.43-60 30-60" stroke="#5e5e5e" stroke-width="3" fill="none"/><use xlink:href="#d" transform="matrix(1,0,0,1,765,1325) translate(63.858024691358025 45.27777777777778)"/><use xlink:href="#b" transform="matrix(1,0,0,1,765,1325) translate(131.6358024691358 45.27777777777778)"/><use xlink:href="#e" transform="matrix(1,0,0,1,765,1325) translate(46.66666666666666 71.94444444444446)"/><path d="M1221 1460c16.57 0 30 26.86 30 60s-13.43 60-30 60H981c-16.57 0-30-26.86-30-60s13.43-60 30-60z" stroke="#5e5e5e" stroke-width="3" fill="#ffdba9"/><path d="M1221 1580c-16.57 0-30-26.86-30-60s13.43-60 30-60" stroke="#5e5e5e" stroke-width="3" fill="none"/><use xlink:href="#f" transform="matrix(1,0,0,1,956,1465) translate(82.34567901234568 45.27777777777778)"/><use xlink:href="#g" transform="matrix(1,0,0,1,956,1465) translate(50.37037037037037 71.94444444444446)"/><path d="M1221 1880c16.57 0 30 26.86 30 60s-13.43 60-30 60H981c-16.57 0-30-26.86-30-60s13.43-60 30-60z" stroke="#5e5e5e" stroke-width="3" fill="#ffdba9"/><path d="M1221 2000c-16.57 0-30-26.86-30-60s13.43-60 30-60" stroke="#5e5e5e" stroke-width="3" fill="none"/><use xlink:href="#h" transform="matrix(1,0,0,1,956,1885) translate(36.728395061728406 45.27777777777778)"/><use xlink:href="#i" transform="matrix(1,0,0,1,956,1885) translate(132.90123456790124 45.27777777777778)"/><use xlink:href="#j" transform="matrix(1,0,0,1,956,1885) translate(52.8395061728395 71.94444444444446)"/><path d="M1221 2300c16.57 0 30 26.86 30 60s-13.43 60-30 60H981c-16.57 0-30-26.86-30-60s13.43-60 30-60z" stroke="#5e5e5e" stroke-width="3" fill="#ffdba9"/><path d="M1221 2420c-16.57 0-30-26.86-30-60s13.43-60 30-60" stroke="#5e5e5e" stroke-width="3" fill="none"/><use xlink:href="#k" transform="matrix(1,0,0,1,956,2305) translate(52.74691358024691 45.27777777777778)"/><use xlink:href="#l" transform="matrix(1,0,0,1,956,2305) translate(57.12962962962962 71.94444444444446)"/><path d="M1250.45 2305.8c.86-3.2 4.24-5.8 7.55-5.8h256c3.3 0 5.3 2.6 4.45 5.8l-28.9 108.4c-.86 3.2-4.24 5.8-7.55 5.8h-256c-3.3 0-5.3-2.6-4.45-5.8z" stroke="#5e5e5e" stroke-width="3" fill="#ffbbb1"/><use xlink:href="#u" transform="matrix(1,0,0,1,1225,2305) translate(65.99882716049383 59.02777777777778)"/><use xlink:href="#n" transform="matrix(1,0,0,1,1225,2305) translate(95.62845679012347 59.02777777777778)"/><path d="M1250.45 1885.8c.86-3.2 4.24-5.8 7.55-5.8h256c3.3 0 5.3 2.6 4.45 5.8l-28.9 108.4c-.86 3.2-4.24 5.8-7.55 5.8h-256c-3.3 0-5.3-2.6-4.45-5.8z" stroke="#5e5e5e" stroke-width="3" fill="#ffbbb1"/><use xlink:href="#s" transform="matrix(1,0,0,1,1225,1885) translate(67.85067901234568 59.02777777777778)"/><use xlink:href="#v" transform="matrix(1,0,0,1,1225,1885) translate(123.28277777777778 59.02777777777778)"/><use xlink:href="#w" transform="matrix(1,0,0,1,1225,1885) translate(140.505 59.02777777777778)"/><path d="M1250.45 1465.8c.86-3.2 4.24-5.8 7.55-5.8h256c3.3 0 5.3 2.6 4.45 5.8l-28.9 108.4c-.86 3.2-4.24 5.8-7.55 5.8h-256c-3.3 0-5.3-2.6-4.45-5.8z" stroke="#5e5e5e" stroke-width="3" fill="#ffbbb1"/><use xlink:href="#s" transform="matrix(1,0,0,1,1225,1465) translate(90.69018518518519 59.02777777777778)"/><use xlink:href="#x" transform="matrix(1,0,0,1,1225,1465) translate(146.1222839506173 59.02777777777778)"/><path d="M910 1442.5v71.5c0 3.3 2.7 6 6 6h15" stroke="#7ab648" stroke-width="2" fill="none"/><path d="M911 1442.53h-2v-1.03h2" fill="#7ab648"/><path d="M946.26 1520l-14.26 4.64v-9.28z" stroke="#7ab648" stroke-width="2" fill="#7ab648"/><path d="M910 1442.5V1934c0 3.3 2.7 6 6 6h15" stroke="#7ab648" stroke-width="2" fill="none"/><path d="M911 1442.53h-2v-1.03h2" fill="#7ab648"/><path d="M946.26 1940l-14.26 4.64v-9.28z" stroke="#7ab648" stroke-width="2" fill="#7ab648"/><path d="M910 1442.5V2354c0 3.3 2.7 6 6 6h15" stroke="#7ab648" stroke-width="2" fill="none"/><path d="M911 1442.53h-2v-1.03h2" fill="#7ab648"/><path d="M946.26 2360l-14.26 4.64v-9.28z" stroke="#7ab648" stroke-width="2" fill="#7ab648"/><path d="M730 242.5V1374c0 3.3 2.7 6 6 6h4" stroke="#7ab648" stroke-width="2" fill="none"/><path d="M731 242.53h-2v-1.03h2" fill="#7ab648"/><path d="M755.26 1380l-14.26 4.64v-9.28z" stroke="#7ab648" stroke-width="2" fill="#7ab648"/><path d="M1370 2422.5v71c0 3.3 2.7 6 6 6h73" stroke="#7ab648" stroke-width="2" fill="none"/><path d="M1371 2422.53h-2v-1.03h2" fill="#7ab648"/><path d="M1464.26 2499.5l-14.26 4.64v-9.28z" stroke="#7ab648" stroke-width="2" fill="#7ab648"/><path d="M1370 1582.5v71.5c0 3.3 2.7 6 6 6h73" stroke="#7ab648" stroke-width="2" fill="none"/><path d="M1371 1582.53h-2v-1.03h2" fill="#7ab648"/><path d="M1464.26 1660l-14.26 4.64v-9.28z" stroke="#7ab648" stroke-width="2" fill="#7ab648"/><path d="M1370 2002.5v77.5c0 3.3 2.7 6 6 6h73" stroke="#7ab648" stroke-width="2" fill="none"/><path d="M1371 2002.53h-2v-1.03h2" fill="#7ab648"/><path d="M1464.26 2086l-14.26 4.64v-9.28z" stroke="#7ab648" stroke-width="2" fill="#7ab648"/><path d="M1370 842.5v76c0 3.3 2.7 6 6 6h73" stroke="#7ab648" stroke-width="2" fill="none"/><path d="M1371 842.53h-2v-1.03h2" fill="#7ab648"/><path d="M1464.26 924.5l-14.26 4.64v-9.28z" stroke="#7ab648" stroke-width="2" fill="#7ab648"/><path d="M1739 1000c16.57 0 30 26.86 30 60s-13.43 60-30 60h-240c-16.57 0-30-26.86-30-60s13.43-60 30-60z" stroke="#5e5e5e" stroke-width="3" fill="#ffdba9"/><path d="M1739 1120c-16.57 0-30-26.86-30-60s13.43-60 30-60" stroke="#5e5e5e" stroke-width="3" fill="none"/><use xlink:href="#y" transform="matrix(1,0,0,1,1474,1005) translate(20.06172839506172 59.02777777777778)"/><use xlink:href="#z" transform="matrix(1,0,0,1,1474,1005) translate(60.74074074074073 59.02777777777778)"/><use xlink:href="#A" transform="matrix(1,0,0,1,1474,1005) translate(85.43209876543209 59.02777777777778)"/><path d="M1370 842.5V1054c0 3.3 2.7 6 6 6h73" stroke="#7ab648" stroke-width="2" fill="none"/><path d="M1371 842.53h-2v-1.03h2" fill="#7ab648"/><path d="M1464.26 1060l-14.26 4.64v-9.28z" stroke="#7ab648" stroke-width="2" fill="#7ab648"/><path d="M1737 860c-14.8 0-26.8 26.86-26.8 60s12 60 26.8 60H1495.8c-14.8 0-26.8-26.86-26.8-60s12-60 26.8-60z" stroke="#5e5e5e" stroke-width="3" fill="#b2d6ef"/><use xlink:href="#B" transform="matrix(1,0,0,1,1474,865) translate(53.30864197530863 59.02777777777778)"/><use xlink:href="#C" transform="matrix(1,0,0,1,1474,865) translate(73.06172839506172 59.02777777777778)"/><use xlink:href="#D" transform="matrix(1,0,0,1,1474,865) translate(137.1358024691358 59.02777777777778)"/><path d="M1737 2020c-14.8 0-26.8 26.86-26.8 60s12 60 26.8 60H1495.8c-14.8 0-26.8-26.86-26.8-60s12-60 26.8-60z" stroke="#5e5e5e" stroke-width="3" fill="#b2d6ef"/><use xlink:href="#E" transform="matrix(1,0,0,1,1474,2025) translate(81.73456790123457 59.02777777777778)"/><path d="M1737 2440c-14.8 0-26.8 26.86-26.8 60s12 60 26.8 60H1495.8c-14.8 0-26.8-26.86-26.8-60s12-60 26.8-60z" stroke="#5e5e5e" stroke-width="3" fill="#b2d6ef"/><use xlink:href="#F" transform="matrix(1,0,0,1,1474,2445) translate(69.35802469135803 59.02777777777778)"/><path d="M1737 2160c-14.8 0-26.8 26.86-26.8 60s12 60 26.8 60H1495.8c-14.8 0-26.8-26.86-26.8-60s12-60 26.8-60z" stroke="#5e5e5e" stroke-width="3" fill="#b2d6ef"/><use xlink:href="#G" transform="matrix(1,0,0,1,1474,2165) translate(66.30246913580247 59.02777777777778)"/><use xlink:href="#H" transform="matrix(1,0,0,1,1474,2165) translate(110.56172839506172 59.02777777777778)"/><path d="M1739 2580c16.57 0 30 26.86 30 60s-13.43 60-30 60h-240c-16.57 0-30-26.86-30-60s13.43-60 30-60z" stroke="#5e5e5e" stroke-width="3" fill="#ffdba9"/><path d="M1739 2700c-16.57 0-30-26.86-30-60s13.43-60 30-60" stroke="#5e5e5e" stroke-width="3" fill="none"/><use xlink:href="#I" transform="matrix(1,0,0,1,1474,2585) translate(56.017345679012344 31.52777777777778)"/><use xlink:href="#J" transform="matrix(1,0,0,1,1474,2585) translate(127.4370987654321 31.52777777777778)"/><use xlink:href="#K" transform="matrix(1,0,0,1,1474,2585) translate(55.64814814814815 58.19444444444445)"/><use xlink:href="#L" transform="matrix(1,0,0,1,1474,2585) translate(99.90740740740742 58.19444444444445)"/><use xlink:href="#n" transform="matrix(1,0,0,1,1474,2585) translate(51.31364197530865 84.86111111111111)"/><path d="M1370 2002.5V2214c0 3.3 2.7 6 6 6h73" stroke="#7ab648" stroke-width="2" fill="none"/><path d="M1371 2002.53h-2v-1.03h2" fill="#7ab648"/><path d="M1464.26 2220l-14.26 4.64v-9.28z" stroke="#7ab648" stroke-width="2" fill="#7ab648"/><path d="M1370 2422.5V2634c0 3.3 2.7 6 6 6h73" stroke="#7ab648" stroke-width="2" fill="none"/><path d="M1371 2422.53h-2v-1.03h2" fill="#7ab648"/><path d="M1464.26 2640l-14.26 4.64v-9.28z" stroke="#7ab648" stroke-width="2" fill="#7ab648"/><path d="M2237 2720c-14.8 0-26.8 26.86-26.8 60s12 60 26.8 60H1995.8c-14.8 0-26.8-26.86-26.8-60s12-60 26.8-60z" stroke="#5e5e5e" stroke-width="3" fill="#b2d6ef"/><use xlink:href="#E" transform="matrix(1,0,0,1,1974,2725) translate(81.73456790123457 59.02777777777778)"/><path d="M2237 2860c-14.8 0-26.8 26.86-26.8 60s12 60 26.8 60H1995.8c-14.8 0-26.8-26.86-26.8-60s12-60 26.8-60z" stroke="#5e5e5e" stroke-width="3" fill="#b2d6ef"/><use xlink:href="#M" transform="matrix(1,0,0,1,1974,2865) translate(55.808641975308646 59.02777777777778)"/><use xlink:href="#N" transform="matrix(1,0,0,1,1974,2865) translate(123.5246913580247 59.02777777777778)"/><path d="M2237 3000c-14.8 0-26.8 26.86-26.8 60s12 60 26.8 60H1995.8c-14.8 0-26.8-26.86-26.8-60s12-60 26.8-60z" stroke="#5e5e5e" stroke-width="3" fill="#b2d6ef"/><use xlink:href="#G" transform="matrix(1,0,0,1,1974,3005) translate(69.35802469135803 59.02777777777778)"/><use xlink:href="#O" transform="matrix(1,0,0,1,1974,3005) translate(113.61728395061729 59.02777777777778)"/><path d="M1784.76 2584.24c2.34-2.34 6.93-4.24 10.24-4.24h204c16.57 0 30 26.86 30 60s-13.43 60-30 60h-204c-3.3 0-7.9-1.9-10.24-4.24l-51.52-51.52c-2.34-2.34-2.34-6.14 0-8.48z" stroke="#5e5e5e" stroke-width="3" fill="#d1bcd2"/><use xlink:href="#P" transform="matrix(1,0,0,1,1734,2585) translate(57.097592592592584 59.02777777777778)"/><use xlink:href="#Q" transform="matrix(1,0,0,1,1734,2585) translate(181.54203703703703 59.02777777777778)"/><path d="M1879.67 2702.5v71.5c0 3.3 2.7 6 6 6H1949" stroke="#7ab648" stroke-width="2" fill="none"/><path d="M1880.67 2702.53h-2v-1.03h2" fill="#7ab648"/><path d="M1964.26 2780l-14.26 4.64v-9.28z" stroke="#7ab648" stroke-width="2" fill="#7ab648"/><path d="M1879.67 2702.5V2914c0 3.3 2.7 6 6 6H1949" stroke="#7ab648" stroke-width="2" fill="none"/><path d="M1880.67 2702.53h-2v-1.03h2" fill="#7ab648"/><path d="M1964.26 2920l-14.26 4.64v-9.28z" stroke="#7ab648" stroke-width="2" fill="#7ab648"/><path d="M1879.67 2702.5V3054c0 3.3 2.7 6 6 6H1949" stroke="#7ab648" stroke-width="2" fill="none"/><path d="M1880.67 2702.53h-2v-1.03h2" fill="#7ab648"/><path d="M1964.26 3060l-14.26 4.64v-9.28z" stroke="#7ab648" stroke-width="2" fill="#7ab648"/><path d="M635.76 124.24C638.1 121.9 642.7 120 646 120h204c16.57 0 30 26.86 30 60s-13.43 60-30 60H646c-3.3 0-7.9-1.9-10.24-4.24l-51.52-51.52c-2.34-2.34-2.34-6.14 0-8.48z" stroke="#5e5e5e" stroke-width="3" fill="#d1bcd2"/><use xlink:href="#R" transform="matrix(1,0,0,1,585,125) translate(62.622283950617295 59.02777777777778)"/><use xlink:href="#S" transform="matrix(1,0,0,1,585,125) translate(190.77043209876544 59.02777777777778)"/><path d="M1403.83 104.32c2.3-2.4 6.86-4.32 10.17-4.32h92c7.73 0 14 12.98 14 29s-6.27 29-14 29h-92c-3.3 0-7.87-1.93-10.17-4.32l-19.66-20.36c-2.3-2.4-2.3-6.25 0-8.64z" stroke="#5e5e5e" stroke-width="3" fill="#d1bcd2"/><g><use xlink:href="#T" transform="matrix(1,0,0,1,1385,105) translate(18.671666666666667 19)"/><use xlink:href="#U" transform="matrix(1,0,0,1,1385,105) translate(26.866111111111113 42.99999999999999)"/></g><path d="M1393.92 189.8c.85-3.2 4.23-5.8 7.55-5.8H1514c3.3 0 5.3 2.6 4.45 5.8l-12.37 46.4c-.85 3.2-4.23 5.8-7.55 5.8H1386c-3.3 0-5.3-2.6-4.45-5.8z" stroke="#5e5e5e" stroke-width="3" fill="#ffbbb1"/><g><use xlink:href="#T" transform="matrix(1,0,0,1,1385,189) translate(13.171666666666669 19)"/><use xlink:href="#V" transform="matrix(1,0,0,1,1385,189) translate(26.727222222222224 42.99999999999999)"/></g><path d="M1368 149c6.63 0 12 10.75 12 24s-5.37 24-12 24h-96c-6.63 0-12-10.75-12-24s5.37-24 12-24z" stroke="#5e5e5e" stroke-width="3" fill="#ffdba9"/><path d="M1368 197c-6.63 0-12-10.75-12-24s5.37-24 12-24" stroke="#5e5e5e" stroke-width="3" fill="none"/><g><use xlink:href="#W" transform="matrix(1,0,0,1,1265,154) translate(4.222222222222236 23.125)"/></g><path d="M1680 189c-6.63 0-12 12.03-12 26.87 0 14.83 5.37 26.86 12 26.86h-108c-6.63 0-12-12.03-12-26.86 0-14.84 5.37-26.87 12-26.87z" stroke="#5e5e5e" stroke-width="3" fill="#b2d6ef"/><g><use xlink:href="#X" transform="matrix(1,0,0,1,1565,194) translate(26.87037037037037 26.02777777777778)"/></g><path d="M1683.4 1600c29.6 0 53.6 26.86 53.6 60s-24 60-53.6 60h-160.8c-29.6 0-53.6-26.86-53.6-60s24-60 53.6-60z" stroke="#5e5e5e" stroke-width="3" fill="#c7e8ac"/><g><use xlink:href="#s" transform="matrix(1,0,0,1,1474,1605) translate(31.74691358024691 59.02777777777778)"/><use xlink:href="#Y" transform="matrix(1,0,0,1,1474,1605) translate(87.17901234567901 59.02777777777778)"/><use xlink:href="#Z" transform="matrix(1,0,0,1,1474,1605) translate(153.72222222222223 59.02777777777778)"/></g><path d="M1683.4 1740c29.6 0 53.6 26.86 53.6 60s-24 60-53.6 60h-160.8c-29.6 0-53.6-26.86-53.6-60s24-60 53.6-60z" stroke="#5e5e5e" stroke-width="3" fill="#c7e8ac"/><g><use xlink:href="#s" transform="matrix(1,0,0,1,1474,1745) translate(16.314814814814824 59.02777777777778)"/><use xlink:href="#Y" transform="matrix(1,0,0,1,1474,1745) translate(71.74691358024693 59.02777777777778)"/><use xlink:href="#aa" transform="matrix(1,0,0,1,1474,1745) translate(138.29012345679013 59.02777777777778)"/><use xlink:href="#H" transform="matrix(1,0,0,1,1474,1745) translate(182.54938271604937 59.02777777777778)"/></g><path d="M1370 1582.5V1794c0 3.3 2.7 6 6 6h73" stroke="#7ab648" stroke-width="2" fill="none"/><path d="M1371 1582.53h-2v-1.03h2" fill="#7ab648"/><path d="M1464.26 1800l-14.26 4.64v-9.28z" stroke="#7ab648" stroke-width="2" fill="#7ab648"/><path d="M1656 102.13c13.25 0 24 12.03 24 26.87 0 14.84-10.75 26.87-24 26.87h-72c-13.25 0-24-12.03-24-26.87 0-14.84 10.75-26.87 24-26.87z" stroke="#5e5e5e" stroke-width="3" fill="#c7e8ac"/><g><use xlink:href="#ab" transform="matrix(1,0,0,1,1565,107.13432835820896) translate(29.69135802469136 26.02777777777778)"/></g><path d="M1908 580c-14.8 0-26.8 26.86-26.8 60s12 60 26.8 60H1666.8c-14.8 0-26.8-26.86-26.8-60s12-60 26.8-60z" stroke="#5e5e5e" stroke-width="3" fill="#b2d6ef"/><g><use xlink:href="#u" transform="matrix(1,0,0,1,1645,585) translate(78.55555555555556 59.02777777777778)"/><use xlink:href="#ac" transform="matrix(1,0,0,1,1645,585) translate(108.18518518518519 59.02777777777778)"/></g><path d="M1854.4 440c29.6 0 53.6 26.86 53.6 60s-24 60-53.6 60h-160.8c-29.6 0-53.6-26.86-53.6-60s24-60 53.6-60z" stroke="#5e5e5e" stroke-width="3" fill="#c7e8ac"/><g><use xlink:href="#s" transform="matrix(1,0,0,1,1645,445) translate(74.18518518518519 59.02777777777778)"/><use xlink:href="#x" transform="matrix(1,0,0,1,1645,445) translate(129.6172839506173 59.02777777777778)"/></g><path d="M1506.55 640H1620" stroke="#7ab648" stroke-width="2" fill="none"/><path d="M1506.58 641h-1.3l.54-2h.76" fill="#7ab648"/><path d="M1635.26 640l-14.26 4.64v-9.28z" stroke="#7ab648" stroke-width="2" fill="#7ab648"/><path d="M1506.55 500H1620" stroke="#7ab648" stroke-width="2" fill="none"/><path d="M1506.58 501h-1.3l.54-2h.76" fill="#7ab648"/><path d="M1635.26 500l-14.26 4.64v-9.28z" stroke="#7ab648" stroke-width="2" fill="#7ab648"/><path d="M2245 1140c-14.8 0-26.8 26.86-26.8 60s12 60 26.8 60H2003.8c-14.8 0-26.8-26.86-26.8-60s12-60 26.8-60z" stroke="#5e5e5e" stroke-width="3" fill="#b2d6ef"/><g><use xlink:href="#P" transform="matrix(1,0,0,1,1982,1145) translate(25.592592592592595 59.02777777777778)"/><use xlink:href="#Q" transform="matrix(1,0,0,1,1982,1145) translate(150.03703703703704 59.02777777777778)"/></g><path d="M1792.76 1004.24c2.34-2.34 6.93-4.24 10.24-4.24h204c16.57 0 30 26.86 30 60s-13.43 60-30 60h-204c-3.3 0-7.9-1.9-10.24-4.24l-51.52-51.52c-2.34-2.34-2.34-6.14 0-8.48z" stroke="#5e5e5e" stroke-width="3" fill="#d1bcd2"/><g><use xlink:href="#P" transform="matrix(1,0,0,1,1742,1005) translate(57.097592592592584 59.02777777777778)"/><use xlink:href="#Q" transform="matrix(1,0,0,1,1742,1005) translate(181.54203703703703 59.02777777777778)"/></g><path d="M1887.67 1122.5v71.5c0 3.3 2.7 6 6 6H1957" stroke="#7ab648" stroke-width="2" fill="none"/><path d="M1888.67 1122.53h-2v-1.03h2" fill="#7ab648"/><path d="M1972.26 1200l-14.26 4.64v-9.28z" stroke="#7ab648" stroke-width="2" fill="#7ab648"/><defs><path fill="#333" d="M240 0l2-218c-23 76-54 145-80 218h-23L58-218 59 0H30v-248h44l77 211c21-75 51-140 76-211h43V0h-30" id="ad"/><path fill="#333" d="M141-36C126-15 110 5 73 4 37 3 15-17 15-53c-1-64 63-63 125-63 3-35-9-54-41-54-24 1-41 7-42 31l-33-3c5-37 33-52 76-52 45 0 72 20 72 64v82c-1 20 7 32 28 27v20c-31 9-61-2-59-35zM48-53c0 20 12 33 32 33 41-3 63-29 60-74-43 2-92-5-92 41" id="ae"/><path fill="#333" d="M135-143c-3-34-86-38-87 0 15 53 115 12 119 90S17 21 10-45l28-5c4 36 97 45 98 0-10-56-113-15-118-90-4-57 82-63 122-42 12 7 21 19 24 35" id="af"/><path fill="#333" d="M59-47c-2 24 18 29 38 22v24C64 9 27 4 27-40v-127H5v-23h24l9-43h21v43h35v23H59v120" id="ag"/><path fill="#333" d="M100-194c63 0 86 42 84 106H49c0 40 14 67 53 68 26 1 43-12 49-29l28 8c-11 28-37 45-77 45C44 4 14-33 15-96c1-61 26-98 85-98zm52 81c6-60-76-77-97-28-3 7-6 17-6 28h103" id="ah"/><path fill="#333" d="M114-163C36-179 61-72 57 0H25l-1-190h30c1 12-1 29 2 39 6-27 23-49 58-41v29" id="ai"/><g id="a"><use transform="matrix(0.06172839506172839,0,0,0.06172839506172839,0,0)" xlink:href="#ad"/><use transform="matrix(0.06172839506172839,0,0,0.06172839506172839,18.456790123456788,0)" xlink:href="#ae"/><use transform="matrix(0.06172839506172839,0,0,0.06172839506172839,30.80246913580247,0)" xlink:href="#af"/><use transform="matrix(0.06172839506172839,0,0,0.06172839506172839,41.91358024691358,0)" xlink:href="#ag"/><use transform="matrix(0.06172839506172839,0,0,0.06172839506172839,48.086419753086425,0)" xlink:href="#ah"/><use transform="matrix(0.06172839506172839,0,0,0.06172839506172839,60.4320987654321,0)" xlink:href="#ai"/></g><path fill="#333" d="M30 0v-248h33v221h125V0H30" id="aj"/><path fill="#333" d="M24-231v-30h32v30H24zM24 0v-190h32V0H24" id="ak"/><g id="b"><use transform="matrix(0.06172839506172839,0,0,0.06172839506172839,0,0)" xlink:href="#aj"/><use transform="matrix(0.06172839506172839,0,0,0.06172839506172839,12.345679012345679,0)" xlink:href="#ak"/><use transform="matrix(0.06172839506172839,0,0,0.06172839506172839,17.22222222222222,0)" xlink:href="#af"/><use transform="matrix(0.06172839506172839,0,0,0.06172839506172839,28.333333333333332,0)" xlink:href="#ag"/></g><path fill="#333" d="M87 75C49 33 22-17 22-94c0-76 28-126 65-167h31c-38 41-64 92-64 168S80 34 118 75H87" id="al"/><path fill="#333" d="M127-220V0H93v-220H8v-28h204v28h-85" id="am"/><path fill="#333" d="M100-194c62-1 85 37 85 99 1 63-27 99-86 99S16-35 15-95c0-66 28-99 85-99zM99-20c44 1 53-31 53-75 0-43-8-75-51-75s-53 32-53 75 10 74 51 75" id="an"/><path fill="#333" d="M115-194c55 1 70 41 70 98S169 2 115 4C84 4 66-9 55-30l1 105H24l-1-265h31l2 30c10-21 28-34 59-34zm-8 174c40 0 45-34 45-75s-6-73-45-74c-42 0-51 32-51 76 0 43 10 73 51 73" id="ao"/><path fill="#333" d="M16-82v-28h88v28H16" id="ap"/><path fill="#333" d="M108 0H70L1-190h34L89-25l56-165h34" id="aq"/><path fill="#333" d="M24 0v-261h32V0H24" id="ar"/><path fill="#333" d="M33-261c38 41 65 92 65 168S71 34 33 75H2C39 34 66-17 66-93S39-220 2-261h31" id="as"/><g id="c"><use transform="matrix(0.06172839506172839,0,0,0.06172839506172839,0,0)" xlink:href="#al"/><use transform="matrix(0.06172839506172839,0,0,0.06172839506172839,7.345679012345679,0)" xlink:href="#am"/><use transform="matrix(0.06172839506172839,0,0,0.06172839506172839,18.39506172839506,0)" xlink:href="#an"/><use transform="matrix(0.06172839506172839,0,0,0.06172839506172839,30.74074074074074,0)" xlink:href="#ao"/><use transform="matrix(0.06172839506172839,0,0,0.06172839506172839,43.08641975308642,0)" xlink:href="#ap"/><use transform="matrix(0.06172839506172839,0,0,0.06172839506172839,50.432098765432094,0)" xlink:href="#aj"/><use transform="matrix(0.06172839506172839,0,0,0.06172839506172839,62.77777777777777,0)" xlink:href="#ah"/><use transform="matrix(0.06172839506172839,0,0,0.06172839506172839,75.12345679012346,0)" xlink:href="#aq"/><use transform="matrix(0.06172839506172839,0,0,0.06172839506172839,86.23456790123457,0)" xlink:href="#ah"/><use transform="matrix(0.06172839506172839,0,0,0.06172839506172839,98.58024691358025,0)" xlink:href="#ar"/><use transform="matrix(0.06172839506172839,0,0,0.06172839506172839,103.4567901234568,0)" xlink:href="#as"/></g><path fill="#333" d="M30-248c87 1 191-15 191 75 0 78-77 80-158 76V0H30v-248zm33 125c57 0 124 11 124-50 0-59-68-47-124-48v98" id="at"/><path fill="#333" d="M84 4C-5 8 30-112 23-190h32v120c0 31 7 50 39 49 72-2 45-101 50-169h31l1 190h-30c-1-10 1-25-2-33-11 22-28 36-60 37" id="au"/><path fill="#333" d="M177-190C167-65 218 103 67 71c-23-6-38-20-44-43l32-5c15 47 100 32 89-28v-30C133-14 115 1 83 1 29 1 15-40 15-95c0-56 16-97 71-98 29-1 48 16 59 35 1-10 0-23 2-32h30zM94-22c36 0 50-32 50-73 0-42-14-75-50-75-39 0-46 34-46 75s6 73 46 73" id="av"/><path fill="#333" d="M117-194c89-4 53 116 60 194h-32v-121c0-31-8-49-39-48C34-167 62-67 57 0H25l-1-190h30c1 10-1 24 2 32 11-22 29-35 61-36" id="aw"/><g id="d"><use transform="matrix(0.06172839506172839,0,0,0.06172839506172839,0,0)" xlink:href="#at"/><use transform="matrix(0.06172839506172839,0,0,0.06172839506172839,14.814814814814813,0)" xlink:href="#ar"/><use transform="matrix(0.06172839506172839,0,0,0.06172839506172839,19.691358024691354,0)" xlink:href="#au"/><use transform="matrix(0.06172839506172839,0,0,0.06172839506172839,32.03703703703703,0)" xlink:href="#av"/><use transform="matrix(0.06172839506172839,0,0,0.06172839506172839,44.38271604938271,0)" xlink:href="#ak"/><use transform="matrix(0.06172839506172839,0,0,0.06172839506172839,49.25925925925925,0)" xlink:href="#aw"/></g><g id="e"><use transform="matrix(0.06172839506172839,0,0,0.06172839506172839,0,0)" xlink:href="#al"/><use transform="matrix(0.06172839506172839,0,0,0.06172839506172839,7.345679012345679,0)" xlink:href="#at"/><use transform="matrix(0.06172839506172839,0,0,0.06172839506172839,22.160493827160494,0)" xlink:href="#ar"/><use transform="matrix(0.06172839506172839,0,0,0.06172839506172839,27.037037037037038,0)" xlink:href="#au"/><use transform="matrix(0.06172839506172839,0,0,0.06172839506172839,39.382716049382715,0)" xlink:href="#av"/><use transform="matrix(0.06172839506172839,0,0,0.06172839506172839,51.72839506172839,0)" xlink:href="#ak"/><use transform="matrix(0.06172839506172839,0,0,0.06172839506172839,56.60493827160494,0)" xlink:href="#aw"/><use transform="matrix(0.06172839506172839,0,0,0.06172839506172839,68.95061728395062,0)" xlink:href="#ap"/><use transform="matrix(0.06172839506172839,0,0,0.06172839506172839,76.2962962962963,0)" xlink:href="#aj"/><use transform="matrix(0.06172839506172839,0,0,0.06172839506172839,88.64197530864199,0)" xlink:href="#ah"/><use transform="matrix(0.06172839506172839,0,0,0.06172839506172839,100.98765432098767,0)" xlink:href="#aq"/><use transform="matrix(0.06172839506172839,0,0,0.06172839506172839,112.09876543209879,0)" xlink:href="#ah"/><use transform="matrix(0.06172839506172839,0,0,0.06172839506172839,124.44444444444447,0)" xlink:href="#ar"/><use transform="matrix(0.06172839506172839,0,0,0.06172839506172839,129.32098765432102,0)" xlink:href="#as"/></g><path fill="#333" d="M210-169c-67 3-38 105-44 169h-31v-121c0-29-5-50-35-48C34-165 62-65 56 0H25l-1-190h30c1 10-1 24 2 32 10-44 99-50 107 0 11-21 27-35 58-36 85-2 47 119 55 194h-31v-121c0-29-5-49-35-48" id="ax"/><g id="f"><use transform="matrix(0.06172839506172839,0,0,0.06172839506172839,0,0)" xlink:href="#am"/><use transform="matrix(0.06172839506172839,0,0,0.06172839506172839,11.049382716049381,0)" xlink:href="#an"/><use transform="matrix(0.06172839506172839,0,0,0.06172839506172839,23.39506172839506,0)" xlink:href="#ax"/><use transform="matrix(0.06172839506172839,0,0,0.06172839506172839,41.85185185185185,0)" xlink:href="#ah"/><use transform="matrix(0.06172839506172839,0,0,0.06172839506172839,54.197530864197525,0)" xlink:href="#af"/></g><g id="g"><use transform="matrix(0.06172839506172839,0,0,0.06172839506172839,0,0)" xlink:href="#al"/><use transform="matrix(0.06172839506172839,0,0,0.06172839506172839,7.345679012345679,0)" xlink:href="#am"/><use transform="matrix(0.06172839506172839,0,0,0.06172839506172839,18.39506172839506,0)" xlink:href="#an"/><use transform="matrix(0.06172839506172839,0,0,0.06172839506172839,30.74074074074074,0)" xlink:href="#ax"/><use transform="matrix(0.06172839506172839,0,0,0.06172839506172839,49.19753086419753,0)" xlink:href="#ah"/><use transform="matrix(0.06172839506172839,0,0,0.06172839506172839,61.54320987654321,0)" xlink:href="#ap"/><use transform="matrix(0.06172839506172839,0,0,0.06172839506172839,68.88888888888889,0)" xlink:href="#aj"/><use transform="matrix(0.06172839506172839,0,0,0.06172839506172839,81.23456790123457,0)" xlink:href="#ah"/><use transform="matrix(0.06172839506172839,0,0,0.06172839506172839,93.58024691358025,0)" xlink:href="#aq"/><use transform="matrix(0.06172839506172839,0,0,0.06172839506172839,104.69135802469137,0)" xlink:href="#ah"/><use transform="matrix(0.06172839506172839,0,0,0.06172839506172839,117.03703703703705,0)" xlink:href="#ar"/><use transform="matrix(0.06172839506172839,0,0,0.06172839506172839,121.9135802469136,0)" xlink:href="#as"/></g><path fill="#333" d="M96-169c-40 0-48 33-48 73s9 75 48 75c24 0 41-14 43-38l32 2c-6 37-31 61-74 61-59 0-76-41-82-99-10-93 101-131 147-64 4 7 5 14 7 22l-32 3c-4-21-16-35-41-35" id="ay"/><path fill="#333" d="M106-169C34-169 62-67 57 0H25v-261h32l-1 103c12-21 28-36 61-36 89 0 53 116 60 194h-32v-121c2-32-8-49-39-48" id="az"/><g id="h"><use transform="matrix(0.06172839506172839,0,0,0.06172839506172839,0,0)" xlink:href="#ad"/><use transform="matrix(0.06172839506172839,0,0,0.06172839506172839,18.456790123456788,0)" xlink:href="#ae"/><use transform="matrix(0.06172839506172839,0,0,0.06172839506172839,30.80246913580247,0)" xlink:href="#ag"/><use transform="matrix(0.06172839506172839,0,0,0.06172839506172839,36.97530864197531,0)" xlink:href="#ay"/><use transform="matrix(0.06172839506172839,0,0,0.06172839506172839,48.08641975308642,0)" xlink:href="#az"/><use transform="matrix(0.06172839506172839,0,0,0.06172839506172839,60.432098765432094,0)" xlink:href="#ak"/><use transform="matrix(0.06172839506172839,0,0,0.06172839506172839,65.30864197530863,0)" xlink:href="#aw"/><use transform="matrix(0.06172839506172839,0,0,0.06172839506172839,77.65432098765432,0)" xlink:href="#av"/></g><path fill="#333" d="M185-189c-5-48-123-54-124 2 14 75 158 14 163 119 3 78-121 87-175 55-17-10-28-26-33-46l33-7c5 56 141 63 141-1 0-78-155-14-162-118-5-82 145-84 179-34 5 7 8 16 11 25" id="aA"/><g id="i"><use transform="matrix(0.06172839506172839,0,0,0.06172839506172839,0,0)" xlink:href="#aA"/><use transform="matrix(0.06172839506172839,0,0,0.06172839506172839,14.814814814814813,0)" xlink:href="#ao"/><use transform="matrix(0.06172839506172839,0,0,0.06172839506172839,27.160493827160494,0)" xlink:href="#ah"/><use transform="matrix(0.06172839506172839,0,0,0.06172839506172839,39.50617283950617,0)" xlink:href="#ar"/><use transform="matrix(0.06172839506172839,0,0,0.06172839506172839,44.382716049382715,0)" xlink:href="#ar"/><use transform="matrix(0.06172839506172839,0,0,0.06172839506172839,49.25925925925926,0)" xlink:href="#af"/></g><g id="j"><use transform="matrix(0.06172839506172839,0,0,0.06172839506172839,0,0)" xlink:href="#al"/><use transform="matrix(0.06172839506172839,0,0,0.06172839506172839,7.345679012345679,0)" xlink:href="#aA"/><use transform="matrix(0.06172839506172839,0,0,0.06172839506172839,22.160493827160494,0)" xlink:href="#ao"/><use transform="matrix(0.06172839506172839,0,0,0.06172839506172839,34.50617283950617,0)" xlink:href="#ah"/><use transform="matrix(0.06172839506172839,0,0,0.06172839506172839,46.85185185185185,0)" xlink:href="#ar"/><use transform="matrix(0.06172839506172839,0,0,0.06172839506172839,51.72839506172839,0)" xlink:href="#ar"/><use transform="matrix(0.06172839506172839,0,0,0.06172839506172839,56.60493827160494,0)" xlink:href="#ap"/><use transform="matrix(0.06172839506172839,0,0,0.06172839506172839,63.95061728395061,0)" xlink:href="#aj"/><use transform="matrix(0.06172839506172839,0,0,0.06172839506172839,76.29629629629629,0)" xlink:href="#ah"/><use transform="matrix(0.06172839506172839,0,0,0.06172839506172839,88.64197530864197,0)" xlink:href="#aq"/><use transform="matrix(0.06172839506172839,0,0,0.06172839506172839,99.75308641975309,0)" xlink:href="#ah"/><use transform="matrix(0.06172839506172839,0,0,0.06172839506172839,112.09876543209877,0)" xlink:href="#ar"/><use transform="matrix(0.06172839506172839,0,0,0.06172839506172839,116.97530864197532,0)" xlink:href="#as"/></g><path fill="#333" d="M145-31C134-9 116 4 85 4 32 4 16-35 15-94c0-59 17-99 70-100 32-1 48 14 60 33 0-11-1-24 2-32h30l-1 268h-32zM93-21c41 0 51-33 51-76s-8-73-50-73c-40 0-46 35-46 75s5 74 45 74" id="aB"/><g id="k"><use transform="matrix(0.06172839506172839,0,0,0.06172839506172839,0,0)" xlink:href="#at"/><use transform="matrix(0.06172839506172839,0,0,0.06172839506172839,14.814814814814813,0)" xlink:href="#ai"/><use transform="matrix(0.06172839506172839,0,0,0.06172839506172839,22.160493827160494,0)" xlink:href="#ah"/><use transform="matrix(0.06172839506172839,0,0,0.06172839506172839,34.50617283950617,0)" xlink:href="#ai"/><use transform="matrix(0.06172839506172839,0,0,0.06172839506172839,41.85185185185185,0)" xlink:href="#ah"/><use transform="matrix(0.06172839506172839,0,0,0.06172839506172839,54.197530864197525,0)" xlink:href="#aB"/><use transform="matrix(0.06172839506172839,0,0,0.06172839506172839,66.5432098765432,0)" xlink:href="#au"/><use transform="matrix(0.06172839506172839,0,0,0.06172839506172839,78.88888888888889,0)" xlink:href="#ak"/><use transform="matrix(0.06172839506172839,0,0,0.06172839506172839,83.76543209876543,0)" xlink:href="#af"/><use transform="matrix(0.06172839506172839,0,0,0.06172839506172839,94.87654320987654,0)" xlink:href="#ag"/><use transform="matrix(0.06172839506172839,0,0,0.06172839506172839,101.04938271604938,0)" xlink:href="#ah"/><use transform="matrix(0.06172839506172839,0,0,0.06172839506172839,113.39506172839506,0)" xlink:href="#af"/></g><path fill="#333" d="M233-177c-1 41-23 64-60 70L243 0h-38l-65-103H63V0H30v-248c88 3 205-21 203 71zM63-129c60-2 137 13 137-47 0-61-80-42-137-45v92" id="aC"/><g id="l"><use transform="matrix(0.06172839506172839,0,0,0.06172839506172839,0,0)" xlink:href="#al"/><use transform="matrix(0.06172839506172839,0,0,0.06172839506172839,7.345679012345679,0)" xlink:href="#aC"/><use transform="matrix(0.06172839506172839,0,0,0.06172839506172839,23.333333333333332,0)" xlink:href="#ah"/><use transform="matrix(0.06172839506172839,0,0,0.06172839506172839,35.67901234567901,0)" xlink:href="#aB"/><use transform="matrix(0.06172839506172839,0,0,0.06172839506172839,48.02469135802469,0)" xlink:href="#ap"/><use transform="matrix(0.06172839506172839,0,0,0.06172839506172839,55.37037037037037,0)" xlink:href="#aj"/><use transform="matrix(0.06172839506172839,0,0,0.06172839506172839,67.71604938271605,0)" xlink:href="#ah"/><use transform="matrix(0.06172839506172839,0,0,0.06172839506172839,80.06172839506173,0)" xlink:href="#aq"/><use transform="matrix(0.06172839506172839,0,0,0.06172839506172839,91.17283950617285,0)" xlink:href="#ah"/><use transform="matrix(0.06172839506172839,0,0,0.06172839506172839,103.51851851851853,0)" xlink:href="#ar"/><use transform="matrix(0.06172839506172839,0,0,0.06172839506172839,108.39506172839508,0)" xlink:href="#as"/></g><g id="m"><use transform="matrix(0.06172839506172839,0,0,0.06172839506172839,0,0)" xlink:href="#am"/><use transform="matrix(0.06172839506172839,0,0,0.06172839506172839,13.518518518518517,0)" xlink:href="#az"/><use transform="matrix(0.06172839506172839,0,0,0.06172839506172839,25.864197530864196,0)" xlink:href="#ah"/><use transform="matrix(0.06172839506172839,0,0,0.06172839506172839,38.20987654320987,0)" xlink:href="#ak"/><use transform="matrix(0.06172839506172839,0,0,0.06172839506172839,43.08641975308642,0)" xlink:href="#ai"/></g><g id="n"><use transform="matrix(0.06172839506172839,0,0,0.06172839506172839,0,0)" xlink:href="#at"/><use transform="matrix(0.06172839506172839,0,0,0.06172839506172839,14.814814814814813,0)" xlink:href="#ai"/><use transform="matrix(0.06172839506172839,0,0,0.06172839506172839,22.160493827160494,0)" xlink:href="#ah"/><use transform="matrix(0.06172839506172839,0,0,0.06172839506172839,34.50617283950617,0)" xlink:href="#ai"/><use transform="matrix(0.06172839506172839,0,0,0.06172839506172839,41.85185185185185,0)" xlink:href="#ah"/><use transform="matrix(0.06172839506172839,0,0,0.06172839506172839,54.197530864197525,0)" xlink:href="#aB"/><use transform="matrix(0.06172839506172839,0,0,0.06172839506172839,66.5432098765432,0)" xlink:href="#au"/><use transform="matrix(0.06172839506172839,0,0,0.06172839506172839,78.88888888888889,0)" xlink:href="#ak"/><use transform="matrix(0.06172839506172839,0,0,0.06172839506172839,83.76543209876543,0)" xlink:href="#af"/><use transform="matrix(0.06172839506172839,0,0,0.06172839506172839,94.87654320987654,0)" xlink:href="#ak"/><use transform="matrix(0.06172839506172839,0,0,0.06172839506172839,99.75308641975309,0)" xlink:href="#ag"/><use transform="matrix(0.06172839506172839,0,0,0.06172839506172839,105.92592592592592,0)" xlink:href="#ah"/><use transform="matrix(0.06172839506172839,0,0,0.06172839506172839,118.27160493827161,0)" xlink:href="#af"/></g><g id="o"><use transform="matrix(0.06172839506172839,0,0,0.06172839506172839,0,0)" xlink:href="#am"/><use transform="matrix(0.06172839506172839,0,0,0.06172839506172839,13.518518518518517,0)" xlink:href="#az"/><use transform="matrix(0.06172839506172839,0,0,0.06172839506172839,25.864197530864196,0)" xlink:href="#ah"/></g><g id="p"><use transform="matrix(0.06172839506172839,0,0,0.06172839506172839,0,0)" xlink:href="#aA"/><use transform="matrix(0.06172839506172839,0,0,0.06172839506172839,14.814814814814813,0)" xlink:href="#ao"/><use transform="matrix(0.06172839506172839,0,0,0.06172839506172839,27.160493827160494,0)" xlink:href="#ah"/><use transform="matrix(0.06172839506172839,0,0,0.06172839506172839,39.50617283950617,0)" xlink:href="#ar"/><use transform="matrix(0.06172839506172839,0,0,0.06172839506172839,44.382716049382715,0)" xlink:href="#ar"/><use transform="matrix(0.06172839506172839,0,0,0.06172839506172839,49.25925925925926,0)" xlink:href="#af"/></g><path fill="#333" d="M179-190L93 31C79 59 56 82 12 73V49c39 6 53-20 64-50L1-190h34L92-34l54-156h33" id="aD"/><g id="q"><use transform="matrix(0.06172839506172839,0,0,0.06172839506172839,0,0)" xlink:href="#ag"/><use transform="matrix(0.06172839506172839,0,0,0.06172839506172839,6.172839506172839,0)" xlink:href="#az"/><use transform="matrix(0.06172839506172839,0,0,0.06172839506172839,18.51851851851852,0)" xlink:href="#ah"/><use transform="matrix(0.06172839506172839,0,0,0.06172839506172839,30.864197530864196,0)" xlink:href="#aD"/></g><g id="r"><use transform="matrix(0.06172839506172839,0,0,0.06172839506172839,0,0)" xlink:href="#am"/><use transform="matrix(0.06172839506172839,0,0,0.06172839506172839,11.049382716049381,0)" xlink:href="#ah"/><use transform="matrix(0.06172839506172839,0,0,0.06172839506172839,23.39506172839506,0)" xlink:href="#ae"/><use transform="matrix(0.06172839506172839,0,0,0.06172839506172839,35.74074074074074,0)" xlink:href="#ay"/><use transform="matrix(0.06172839506172839,0,0,0.06172839506172839,46.85185185185185,0)" xlink:href="#az"/></g><g id="s"><use transform="matrix(0.06172839506172839,0,0,0.06172839506172839,0,0)" xlink:href="#aA"/><use transform="matrix(0.06172839506172839,0,0,0.06172839506172839,14.814814814814813,0)" xlink:href="#ao"/><use transform="matrix(0.06172839506172839,0,0,0.06172839506172839,27.160493827160494,0)" xlink:href="#ah"/><use transform="matrix(0.06172839506172839,0,0,0.06172839506172839,39.50617283950617,0)" xlink:href="#ar"/><use transform="matrix(0.06172839506172839,0,0,0.06172839506172839,44.382716049382715,0)" xlink:href="#ar"/></g><g id="t"><use transform="matrix(0.06172839506172839,0,0,0.06172839506172839,0,0)" xlink:href="#am"/><use transform="matrix(0.06172839506172839,0,0,0.06172839506172839,11.049382716049381,0)" xlink:href="#an"/><use transform="matrix(0.06172839506172839,0,0,0.06172839506172839,23.39506172839506,0)" xlink:href="#ax"/><use transform="matrix(0.06172839506172839,0,0,0.06172839506172839,41.85185185185185,0)" xlink:href="#ah"/><use transform="matrix(0.06172839506172839,0,0,0.06172839506172839,54.197530864197525,0)" xlink:href="#af"/></g><path fill="#333" d="M33 0v-248h34V0H33" id="aE"/><g id="u"><use transform="matrix(0.06172839506172839,0,0,0.06172839506172839,0,0)" xlink:href="#aE"/><use transform="matrix(0.06172839506172839,0,0,0.06172839506172839,6.172839506172839,0)" xlink:href="#ag"/><use transform="matrix(0.06172839506172839,0,0,0.06172839506172839,12.345679012345679,0)" xlink:href="#af"/></g><g id="v"><use transform="matrix(0.06172839506172839,0,0,0.06172839506172839,0,0)" xlink:href="#ak"/><use transform="matrix(0.06172839506172839,0,0,0.06172839506172839,4.876543209876543,0)" xlink:href="#ag"/></g><g id="w"><use transform="matrix(0.06172839506172839,0,0,0.06172839506172839,0,0)" xlink:href="#am"/><use transform="matrix(0.06172839506172839,0,0,0.06172839506172839,11.049382716049381,0)" xlink:href="#ah"/><use transform="matrix(0.06172839506172839,0,0,0.06172839506172839,23.39506172839506,0)" xlink:href="#ae"/><use transform="matrix(0.06172839506172839,0,0,0.06172839506172839,35.74074074074074,0)" xlink:href="#ay"/><use transform="matrix(0.06172839506172839,0,0,0.06172839506172839,46.85185185185185,0)" xlink:href="#az"/><use transform="matrix(0.06172839506172839,0,0,0.06172839506172839,59.197530864197525,0)" xlink:href="#ah"/><use transform="matrix(0.06172839506172839,0,0,0.06172839506172839,71.5432098765432,0)" xlink:href="#af"/></g><g id="x"><use transform="matrix(0.06172839506172839,0,0,0.06172839506172839,0,0)" xlink:href="#am"/><use transform="matrix(0.06172839506172839,0,0,0.06172839506172839,11.049382716049381,0)" xlink:href="#an"/><use transform="matrix(0.06172839506172839,0,0,0.06172839506172839,23.39506172839506,0)" xlink:href="#ax"/><use transform="matrix(0.06172839506172839,0,0,0.06172839506172839,41.85185185185185,0)" xlink:href="#ah"/></g><g id="y"><use transform="matrix(0.06172839506172839,0,0,0.06172839506172839,0,0)" xlink:href="#aj"/><use transform="matrix(0.06172839506172839,0,0,0.06172839506172839,12.345679012345679,0)" xlink:href="#ak"/><use transform="matrix(0.06172839506172839,0,0,0.06172839506172839,17.22222222222222,0)" xlink:href="#af"/><use transform="matrix(0.06172839506172839,0,0,0.06172839506172839,28.333333333333332,0)" xlink:href="#ag"/></g><path fill="#333" d="M101-234c-31-9-42 10-38 44h38v23H63V0H32v-167H5v-23h27c-7-52 17-82 69-68v24" id="aF"/><g id="z"><use transform="matrix(0.06172839506172839,0,0,0.06172839506172839,0,0)" xlink:href="#an"/><use transform="matrix(0.06172839506172839,0,0,0.06172839506172839,12.345679012345679,0)" xlink:href="#aF"/></g><g id="A"><use transform="matrix(0.06172839506172839,0,0,0.06172839506172839,0,0)" xlink:href="#at"/><use transform="matrix(0.06172839506172839,0,0,0.06172839506172839,14.814814814814813,0)" xlink:href="#ai"/><use transform="matrix(0.06172839506172839,0,0,0.06172839506172839,22.160493827160494,0)" xlink:href="#ah"/><use transform="matrix(0.06172839506172839,0,0,0.06172839506172839,34.50617283950617,0)" xlink:href="#ai"/><use transform="matrix(0.06172839506172839,0,0,0.06172839506172839,41.85185185185185,0)" xlink:href="#ah"/><use transform="matrix(0.06172839506172839,0,0,0.06172839506172839,54.197530864197525,0)" xlink:href="#aB"/><use transform="matrix(0.06172839506172839,0,0,0.06172839506172839,66.5432098765432,0)" xlink:href="#au"/><use transform="matrix(0.06172839506172839,0,0,0.06172839506172839,78.88888888888889,0)" xlink:href="#ak"/><use transform="matrix(0.06172839506172839,0,0,0.06172839506172839,83.76543209876543,0)" xlink:href="#af"/><use transform="matrix(0.06172839506172839,0,0,0.06172839506172839,94.87654320987654,0)" xlink:href="#ag"/><use transform="matrix(0.06172839506172839,0,0,0.06172839506172839,101.04938271604938,0)" xlink:href="#ah"/><use transform="matrix(0.06172839506172839,0,0,0.06172839506172839,113.39506172839506,0)" xlink:href="#af"/></g><path fill="#333" d="M205 0l-28-72H64L36 0H1l101-248h38L239 0h-34zm-38-99l-47-123c-12 45-31 82-46 123h93" id="aG"/><use transform="matrix(0.06172839506172839,0,0,0.06172839506172839,0,0)" xlink:href="#aG" id="B"/><g id="C"><use transform="matrix(0.06172839506172839,0,0,0.06172839506172839,0,0)" xlink:href="#af"/><use transform="matrix(0.06172839506172839,0,0,0.06172839506172839,11.11111111111111,0)" xlink:href="#ak"/><use transform="matrix(0.06172839506172839,0,0,0.06172839506172839,15.987654320987653,0)" xlink:href="#aw"/><use transform="matrix(0.06172839506172839,0,0,0.06172839506172839,28.333333333333332,0)" xlink:href="#av"/><use transform="matrix(0.06172839506172839,0,0,0.06172839506172839,40.67901234567901,0)" xlink:href="#ar"/><use transform="matrix(0.06172839506172839,0,0,0.06172839506172839,45.55555555555556,0)" xlink:href="#ah"/></g><g id="D"><use transform="matrix(0.06172839506172839,0,0,0.06172839506172839,0,0)" xlink:href="#af"/><use transform="matrix(0.06172839506172839,0,0,0.06172839506172839,11.11111111111111,0)" xlink:href="#ao"/><use transform="matrix(0.06172839506172839,0,0,0.06172839506172839,23.45679012345679,0)" xlink:href="#ah"/><use transform="matrix(0.06172839506172839,0,0,0.06172839506172839,35.80246913580247,0)" xlink:href="#ar"/><use transform="matrix(0.06172839506172839,0,0,0.06172839506172839,40.67901234567901,0)" xlink:href="#ar"/></g><path fill="#333" d="M63-220v92h138v28H63V0H30v-248h175v28H63" id="aH"/><path fill="#333" d="M115-194c53 0 69 39 70 98 0 66-23 100-70 100C84 3 66-7 56-30L54 0H23l1-261h32v101c10-23 28-34 59-34zm-8 174c40 0 45-34 45-75 0-40-5-75-45-74-42 0-51 32-51 76 0 43 10 73 51 73" id="aI"/><g id="E"><use transform="matrix(0.06172839506172839,0,0,0.06172839506172839,0,0)" xlink:href="#aH"/><use transform="matrix(0.06172839506172839,0,0,0.06172839506172839,13.518518518518517,0)" xlink:href="#ak"/><use transform="matrix(0.06172839506172839,0,0,0.06172839506172839,18.39506172839506,0)" xlink:href="#ai"/><use transform="matrix(0.06172839506172839,0,0,0.06172839506172839,25.74074074074074,0)" xlink:href="#ah"/><use transform="matrix(0.06172839506172839,0,0,0.06172839506172839,38.08641975308642,0)" xlink:href="#aI"/><use transform="matrix(0.06172839506172839,0,0,0.06172839506172839,50.432098765432094,0)" xlink:href="#ae"/><use transform="matrix(0.06172839506172839,0,0,0.06172839506172839,62.77777777777777,0)" xlink:href="#ar"/><use transform="matrix(0.06172839506172839,0,0,0.06172839506172839,67.65432098765432,0)" xlink:href="#ar"/></g><g id="F"><use transform="matrix(0.06172839506172839,0,0,0.06172839506172839,0,0)" xlink:href="#aH"/><use transform="matrix(0.06172839506172839,0,0,0.06172839506172839,13.518518518518517,0)" xlink:href="#ar"/><use transform="matrix(0.06172839506172839,0,0,0.06172839506172839,18.39506172839506,0)" xlink:href="#ae"/><use transform="matrix(0.06172839506172839,0,0,0.06172839506172839,30.74074074074074,0)" xlink:href="#ax"/><use transform="matrix(0.06172839506172839,0,0,0.06172839506172839,49.19753086419753,0)" xlink:href="#ah"/><use transform="matrix(0.06172839506172839,0,0,0.06172839506172839,61.54320987654321,0)" xlink:href="#aI"/><use transform="matrix(0.06172839506172839,0,0,0.06172839506172839,73.88888888888889,0)" xlink:href="#an"/><use transform="matrix(0.06172839506172839,0,0,0.06172839506172839,86.23456790123457,0)" xlink:href="#ar"/><use transform="matrix(0.06172839506172839,0,0,0.06172839506172839,91.11111111111111,0)" xlink:href="#ag"/></g><g id="G"><use transform="matrix(0.06172839506172839,0,0,0.06172839506172839,0,0)" xlink:href="#aH"/><use transform="matrix(0.06172839506172839,0,0,0.06172839506172839,13.518518518518517,0)" xlink:href="#ak"/><use transform="matrix(0.06172839506172839,0,0,0.06172839506172839,18.39506172839506,0)" xlink:href="#ai"/><use transform="matrix(0.06172839506172839,0,0,0.06172839506172839,25.74074074074074,0)" xlink:href="#ah"/></g><g id="H"><use transform="matrix(0.06172839506172839,0,0,0.06172839506172839,0,0)" xlink:href="#aA"/><use transform="matrix(0.06172839506172839,0,0,0.06172839506172839,14.814814814814813,0)" xlink:href="#ag"/><use transform="matrix(0.06172839506172839,0,0,0.06172839506172839,20.98765432098765,0)" xlink:href="#an"/><use transform="matrix(0.06172839506172839,0,0,0.06172839506172839,33.33333333333333,0)" xlink:href="#ai"/><use transform="matrix(0.06172839506172839,0,0,0.06172839506172839,40.679012345679006,0)" xlink:href="#ax"/></g><path fill="#333" d="M140-251c81 0 123 46 123 126C263-46 219 4 140 4 59 4 17-45 17-125s42-126 123-126zm0 227c63 0 89-41 89-101s-29-99-89-99c-61 0-89 39-89 99S79-25 140-24" id="aJ"/><g id="I"><use transform="matrix(0.06172839506172839,0,0,0.06172839506172839,0,0)" xlink:href="#aH"/><use transform="matrix(0.06172839506172839,0,0,0.06172839506172839,13.518518518518517,0)" xlink:href="#aJ"/><use transform="matrix(0.06172839506172839,0,0,0.06172839506172839,30.80246913580247,0)" xlink:href="#aC"/><use transform="matrix(0.06172839506172839,0,0,0.06172839506172839,46.79012345679012,0)" xlink:href="#ad"/></g><path fill="#333" d="M33-154v-36h34v36H33zM33 0v-36h34V0H33" id="aK"/><g id="J"><use transform="matrix(0.06172839506172839,0,0,0.06172839506172839,0,0)" xlink:href="#aj"/><use transform="matrix(0.06172839506172839,0,0,0.06172839506172839,12.345679012345679,0)" xlink:href="#aE"/><use transform="matrix(0.06172839506172839,0,0,0.06172839506172839,18.51851851851852,0)" xlink:href="#aA"/><use transform="matrix(0.06172839506172839,0,0,0.06172839506172839,33.33333333333333,0)" xlink:href="#am"/><use transform="matrix(0.06172839506172839,0,0,0.06172839506172839,44.38271604938271,0)" xlink:href="#aK"/></g><g id="K"><use transform="matrix(0.06172839506172839,0,0,0.06172839506172839,0,0)" xlink:href="#aH"/><use transform="matrix(0.06172839506172839,0,0,0.06172839506172839,13.518518518518517,0)" xlink:href="#ak"/><use transform="matrix(0.06172839506172839,0,0,0.06172839506172839,18.39506172839506,0)" xlink:href="#ai"/><use transform="matrix(0.06172839506172839,0,0,0.06172839506172839,25.74074074074074,0)" xlink:href="#ah"/></g><path fill="#333" d="M47-170H22l-4-78h33" id="aL"/><g id="L"><use transform="matrix(0.06172839506172839,0,0,0.06172839506172839,0,0)" xlink:href="#aA"/><use transform="matrix(0.06172839506172839,0,0,0.06172839506172839,14.814814814814813,0)" xlink:href="#ag"/><use transform="matrix(0.06172839506172839,0,0,0.06172839506172839,20.98765432098765,0)" xlink:href="#an"/><use transform="matrix(0.06172839506172839,0,0,0.06172839506172839,33.33333333333333,0)" xlink:href="#ai"/><use transform="matrix(0.06172839506172839,0,0,0.06172839506172839,40.679012345679006,0)" xlink:href="#ax"/><use transform="matrix(0.06172839506172839,0,0,0.06172839506172839,59.1358024691358,0)" xlink:href="#aL"/><use transform="matrix(0.06172839506172839,0,0,0.06172839506172839,63.33333333333333,0)" xlink:href="#af"/></g><g id="M"><use transform="matrix(0.06172839506172839,0,0,0.06172839506172839,0,0)" xlink:href="#aH"/><use transform="matrix(0.06172839506172839,0,0,0.06172839506172839,13.518518518518517,0)" xlink:href="#ar"/><use transform="matrix(0.06172839506172839,0,0,0.06172839506172839,18.39506172839506,0)" xlink:href="#ae"/><use transform="matrix(0.06172839506172839,0,0,0.06172839506172839,30.74074074074074,0)" xlink:href="#ax"/><use transform="matrix(0.06172839506172839,0,0,0.06172839506172839,49.19753086419753,0)" xlink:href="#ah"/></g><path fill="#333" d="M212-179c-10-28-35-45-73-45-59 0-87 40-87 99 0 60 29 101 89 101 43 0 62-24 78-52l27 14C228-24 195 4 139 4 59 4 22-46 18-125c-6-104 99-153 187-111 19 9 31 26 39 46" id="aM"/><path fill="#333" d="M143 0L79-87 56-68V0H24v-261h32v163l83-92h37l-77 82L181 0h-38" id="aN"/><g id="N"><use transform="matrix(0.06172839506172839,0,0,0.06172839506172839,0,0)" xlink:href="#aM"/><use transform="matrix(0.06172839506172839,0,0,0.06172839506172839,15.987654320987653,0)" xlink:href="#ar"/><use transform="matrix(0.06172839506172839,0,0,0.06172839506172839,20.864197530864196,0)" xlink:href="#an"/><use transform="matrix(0.06172839506172839,0,0,0.06172839506172839,33.20987654320987,0)" xlink:href="#ae"/><use transform="matrix(0.06172839506172839,0,0,0.06172839506172839,45.55555555555555,0)" xlink:href="#aN"/></g><g id="O"><use transform="matrix(0.06172839506172839,0,0,0.06172839506172839,0,0)" xlink:href="#aC"/><use transform="matrix(0.06172839506172839,0,0,0.06172839506172839,15.987654320987653,0)" xlink:href="#au"/><use transform="matrix(0.06172839506172839,0,0,0.06172839506172839,28.333333333333332,0)" xlink:href="#aw"/><use transform="matrix(0.06172839506172839,0,0,0.06172839506172839,40.67901234567901,0)" xlink:href="#ah"/></g><g id="P"><use transform="matrix(0.06172839506172839,0,0,0.06172839506172839,0,0)" xlink:href="#at"/><use transform="matrix(0.06172839506172839,0,0,0.06172839506172839,14.814814814814813,0)" xlink:href="#ai"/><use transform="matrix(0.06172839506172839,0,0,0.06172839506172839,22.160493827160494,0)" xlink:href="#ah"/><use transform="matrix(0.06172839506172839,0,0,0.06172839506172839,34.50617283950617,0)" xlink:href="#ai"/><use transform="matrix(0.06172839506172839,0,0,0.06172839506172839,41.85185185185185,0)" xlink:href="#ah"/><use transform="matrix(0.06172839506172839,0,0,0.06172839506172839,54.197530864197525,0)" xlink:href="#aB"/><use transform="matrix(0.06172839506172839,0,0,0.06172839506172839,66.5432098765432,0)" xlink:href="#au"/><use transform="matrix(0.06172839506172839,0,0,0.06172839506172839,78.88888888888889,0)" xlink:href="#ak"/><use transform="matrix(0.06172839506172839,0,0,0.06172839506172839,83.76543209876543,0)" xlink:href="#af"/><use transform="matrix(0.06172839506172839,0,0,0.06172839506172839,94.87654320987654,0)" xlink:href="#ak"/><use transform="matrix(0.06172839506172839,0,0,0.06172839506172839,99.75308641975309,0)" xlink:href="#ag"/><use transform="matrix(0.06172839506172839,0,0,0.06172839506172839,105.92592592592592,0)" xlink:href="#ah"/></g><g id="Q"><use transform="matrix(0.06172839506172839,0,0,0.06172839506172839,0,0)" xlink:href="#aA"/><use transform="matrix(0.06172839506172839,0,0,0.06172839506172839,14.814814814814813,0)" xlink:href="#ao"/><use transform="matrix(0.06172839506172839,0,0,0.06172839506172839,27.160493827160494,0)" xlink:href="#ah"/><use transform="matrix(0.06172839506172839,0,0,0.06172839506172839,39.50617283950617,0)" xlink:href="#ar"/><use transform="matrix(0.06172839506172839,0,0,0.06172839506172839,44.382716049382715,0)" xlink:href="#ar"/><use transform="matrix(0.06172839506172839,0,0,0.06172839506172839,49.25925925925926,0)" xlink:href="#af"/></g><g id="R"><use transform="matrix(0.06172839506172839,0,0,0.06172839506172839,0,0)" xlink:href="#at"/><use transform="matrix(0.06172839506172839,0,0,0.06172839506172839,14.814814814814813,0)" xlink:href="#ar"/><use transform="matrix(0.06172839506172839,0,0,0.06172839506172839,19.691358024691354,0)" xlink:href="#au"/><use transform="matrix(0.06172839506172839,0,0,0.06172839506172839,32.03703703703703,0)" xlink:href="#av"/><use transform="matrix(0.06172839506172839,0,0,0.06172839506172839,44.38271604938271,0)" xlink:href="#ak"/><use transform="matrix(0.06172839506172839,0,0,0.06172839506172839,49.25925925925925,0)" xlink:href="#aw"/><use transform="matrix(0.06172839506172839,0,0,0.06172839506172839,61.60493827160493,0)" xlink:href="#ap"/><use transform="matrix(0.06172839506172839,0,0,0.06172839506172839,68.9506172839506,0)" xlink:href="#aj"/><use transform="matrix(0.06172839506172839,0,0,0.06172839506172839,81.29629629629629,0)" xlink:href="#ah"/><use transform="matrix(0.06172839506172839,0,0,0.06172839506172839,93.64197530864197,0)" xlink:href="#aq"/><use transform="matrix(0.06172839506172839,0,0,0.06172839506172839,104.75308641975309,0)" xlink:href="#ah"/><use transform="matrix(0.06172839506172839,0,0,0.06172839506172839,117.09876543209877,0)" xlink:href="#ar"/></g><g id="S"><use transform="matrix(0.06172839506172839,0,0,0.06172839506172839,0,0)" xlink:href="#aj"/><use transform="matrix(0.06172839506172839,0,0,0.06172839506172839,12.345679012345679,0)" xlink:href="#ak"/><use transform="matrix(0.06172839506172839,0,0,0.06172839506172839,17.22222222222222,0)" xlink:href="#af"/><use transform="matrix(0.06172839506172839,0,0,0.06172839506172839,28.333333333333332,0)" xlink:href="#ag"/><use transform="matrix(0.06172839506172839,0,0,0.06172839506172839,34.50617283950617,0)" xlink:href="#af"/></g><path fill="#333" d="M68-38c1 34 0 65-14 84H32c9-13 17-26 17-46H33v-38h35" id="aO"/><g id="T"><use transform="matrix(0.055555555555555546,0,0,0.055555555555555546,0,0)" xlink:href="#aC"/><use transform="matrix(0.055555555555555546,0,0,0.055555555555555546,14.388888888888886,0)" xlink:href="#ah"/><use transform="matrix(0.055555555555555546,0,0,0.055555555555555546,25.499999999999993,0)" xlink:href="#ao"/><use transform="matrix(0.055555555555555546,0,0,0.055555555555555546,36.6111111111111,0)" xlink:href="#ah"/><use transform="matrix(0.055555555555555546,0,0,0.055555555555555546,47.72222222222221,0)" xlink:href="#ae"/><use transform="matrix(0.055555555555555546,0,0,0.055555555555555546,58.83333333333331,0)" xlink:href="#ag"/><use transform="matrix(0.055555555555555546,0,0,0.055555555555555546,64.38888888888887,0)" xlink:href="#ae"/><use transform="matrix(0.055555555555555546,0,0,0.055555555555555546,75.49999999999999,0)" xlink:href="#aI"/><use transform="matrix(0.055555555555555546,0,0,0.055555555555555546,86.6111111111111,0)" xlink:href="#ar"/><use transform="matrix(0.055555555555555546,0,0,0.055555555555555546,90.99999999999999,0)" xlink:href="#ah"/><use transform="matrix(0.055555555555555546,0,0,0.055555555555555546,102.1111111111111,0)" xlink:href="#aO"/></g><path fill="#333" d="M232-93c-1 65-40 97-104 97C67 4 28-28 28-90v-158h33c8 89-33 224 67 224 102 0 64-133 71-224h33v155" id="aP"/><path fill="#333" d="M85-194c31 0 48 13 60 33l-1-100h32l1 261h-30c-2-10 0-23-3-31C134-8 116 4 85 4 32 4 16-35 15-94c0-66 23-100 70-100zm9 24c-40 0-46 34-46 75 0 40 6 74 45 74 42 0 51-32 51-76 0-42-9-74-50-73" id="aQ"/><g id="U"><use transform="matrix(0.055555555555555546,0,0,0.055555555555555546,0,0)" xlink:href="#aP"/><use transform="matrix(0.055555555555555546,0,0,0.055555555555555546,14.388888888888886,0)" xlink:href="#aw"/><use transform="matrix(0.055555555555555546,0,0,0.055555555555555546,25.499999999999993,0)" xlink:href="#an"/><use transform="matrix(0.055555555555555546,0,0,0.055555555555555546,36.6111111111111,0)" xlink:href="#ai"/><use transform="matrix(0.055555555555555546,0,0,0.055555555555555546,43.22222222222221,0)" xlink:href="#aQ"/><use transform="matrix(0.055555555555555546,0,0,0.055555555555555546,54.333333333333314,0)" xlink:href="#ah"/><use transform="matrix(0.055555555555555546,0,0,0.055555555555555546,65.44444444444443,0)" xlink:href="#ai"/><use transform="matrix(0.055555555555555546,0,0,0.055555555555555546,72.05555555555554,0)" xlink:href="#ah"/><use transform="matrix(0.055555555555555546,0,0,0.055555555555555546,83.16666666666666,0)" xlink:href="#aQ"/></g><g id="V"><use transform="matrix(0.055555555555555546,0,0,0.055555555555555546,0,0)" xlink:href="#aG"/><use transform="matrix(0.055555555555555546,0,0,0.055555555555555546,13.33333333333333,0)" xlink:href="#ar"/><use transform="matrix(0.055555555555555546,0,0,0.055555555555555546,17.722222222222218,0)" xlink:href="#ak"/><use transform="matrix(0.055555555555555546,0,0,0.055555555555555546,22.111111111111107,0)" xlink:href="#av"/><use transform="matrix(0.055555555555555546,0,0,0.055555555555555546,33.222222222222214,0)" xlink:href="#aw"/><use transform="matrix(0.055555555555555546,0,0,0.055555555555555546,44.33333333333332,0)" xlink:href="#ah"/><use transform="matrix(0.055555555555555546,0,0,0.055555555555555546,55.44444444444443,0)" xlink:href="#aQ"/></g><g id="W"><use transform="matrix(0.055555555555555546,0,0,0.055555555555555546,0,0)" xlink:href="#aH"/><use transform="matrix(0.055555555555555546,0,0,0.055555555555555546,12.166666666666664,0)" xlink:href="#an"/><use transform="matrix(0.055555555555555546,0,0,0.055555555555555546,23.27777777777777,0)" xlink:href="#ai"/><use transform="matrix(0.055555555555555546,0,0,0.055555555555555546,29.888888888888882,0)" xlink:href="#ax"/><use transform="matrix(0.055555555555555546,0,0,0.055555555555555546,46.499999999999986,0)" xlink:href="#aj"/><use transform="matrix(0.055555555555555546,0,0,0.055555555555555546,57.611111111111086,0)" xlink:href="#ak"/><use transform="matrix(0.055555555555555546,0,0,0.055555555555555546,61.99999999999998,0)" xlink:href="#af"/><use transform="matrix(0.055555555555555546,0,0,0.055555555555555546,71.99999999999997,0)" xlink:href="#ag"/></g><g id="X"><use transform="matrix(0.06172839506172839,0,0,0.06172839506172839,0,0)" xlink:href="#aA"/><use transform="matrix(0.06172839506172839,0,0,0.06172839506172839,14.814814814814813,0)" xlink:href="#ao"/><use transform="matrix(0.06172839506172839,0,0,0.06172839506172839,27.160493827160494,0)" xlink:href="#ah"/><use transform="matrix(0.06172839506172839,0,0,0.06172839506172839,39.50617283950617,0)" xlink:href="#ar"/><use transform="matrix(0.06172839506172839,0,0,0.06172839506172839,44.382716049382715,0)" xlink:href="#ar"/></g><g id="Y"><use transform="matrix(0.06172839506172839,0,0,0.06172839506172839,0,0)" xlink:href="#am"/><use transform="matrix(0.06172839506172839,0,0,0.06172839506172839,11.049382716049381,0)" xlink:href="#an"/><use transform="matrix(0.06172839506172839,0,0,0.06172839506172839,23.39506172839506,0)" xlink:href="#ax"/><use transform="matrix(0.06172839506172839,0,0,0.06172839506172839,41.85185185185185,0)" xlink:href="#ah"/><use transform="matrix(0.06172839506172839,0,0,0.06172839506172839,54.197530864197525,0)" xlink:href="#aK"/></g><g id="Z"><use transform="matrix(0.06172839506172839,0,0,0.06172839506172839,0,0)" xlink:href="#aH"/><use transform="matrix(0.06172839506172839,0,0,0.06172839506172839,13.518518518518517,0)" xlink:href="#ak"/><use transform="matrix(0.06172839506172839,0,0,0.06172839506172839,18.39506172839506,0)" xlink:href="#ai"/><use transform="matrix(0.06172839506172839,0,0,0.06172839506172839,25.74074074074074,0)" xlink:href="#ah"/><use transform="matrix(0.06172839506172839,0,0,0.06172839506172839,38.08641975308642,0)" xlink:href="#aI"/><use transform="matrix(0.06172839506172839,0,0,0.06172839506172839,50.432098765432094,0)" xlink:href="#ae"/><use transform="matrix(0.06172839506172839,0,0,0.06172839506172839,62.77777777777777,0)" xlink:href="#ar"/><use transform="matrix(0.06172839506172839,0,0,0.06172839506172839,67.65432098765432,0)" xlink:href="#ar"/></g><g id="aa"><use transform="matrix(0.06172839506172839,0,0,0.06172839506172839,0,0)" xlink:href="#aH"/><use transform="matrix(0.06172839506172839,0,0,0.06172839506172839,13.518518518518517,0)" xlink:href="#ak"/><use transform="matrix(0.06172839506172839,0,0,0.06172839506172839,18.39506172839506,0)" xlink:href="#ai"/><use transform="matrix(0.06172839506172839,0,0,0.06172839506172839,25.74074074074074,0)" xlink:href="#ah"/></g><path fill="#333" d="M160-131c35 5 61 23 61 61C221 17 115-2 30 0v-248c76 3 177-17 177 60 0 33-19 50-47 57zm-97-11c50-1 110 9 110-42 0-47-63-36-110-37v79zm0 115c55-2 124 14 124-45 0-56-70-42-124-44v89" id="aR"/><g id="ab"><use transform="matrix(0.06172839506172839,0,0,0.06172839506172839,0,0)" xlink:href="#aR"/><use transform="matrix(0.06172839506172839,0,0,0.06172839506172839,14.814814814814813,0)" xlink:href="#an"/><use transform="matrix(0.06172839506172839,0,0,0.06172839506172839,27.160493827160494,0)" xlink:href="#an"/><use transform="matrix(0.06172839506172839,0,0,0.06172839506172839,39.50617283950617,0)" xlink:href="#aN"/></g><g id="ac"><use transform="matrix(0.06172839506172839,0,0,0.06172839506172839,0,0)" xlink:href="#aA"/><use transform="matrix(0.06172839506172839,0,0,0.06172839506172839,14.814814814814813,0)" xlink:href="#ao"/><use transform="matrix(0.06172839506172839,0,0,0.06172839506172839,27.160493827160494,0)" xlink:href="#ah"/><use transform="matrix(0.06172839506172839,0,0,0.06172839506172839,39.50617283950617,0)" xlink:href="#ar"/><use transform="matrix(0.06172839506172839,0,0,0.06172839506172839,44.382716049382715,0)" xlink:href="#ar"/></g></defs></g></svg>